# xmcd
# 
# Track frame offsets:
#     150
#     10587
#     31887
#     48237
#     68425
#     92592
#     114965
#     135615
#     157780
#     180570
# 
# Disc length: 2487
# 
# Revision: 2
# Processed by: cddbd v1.5.2PL0 Copyright (c) Steve Scherf et al.
# Submitted via: BonkEnc v1.0
# 
DISCID=6509b50a
DTITLE=Various Artist - 熱戀傷痕
DYEAR=1988
DGENRE=Blues
TTITLE0=盧昌明 - Opening
TTITLE1=劉淑娟 - 初戀
TTITLE2=劉淑娟 - 找一個藉口吧
TTITLE3=賈志筠 - 打碎一顆心
TTITLE4=賈志筠 - 呆駐街頭
TTITLE5=劉淑娟 - 傷別離
TTITLE6=賈志筠 - 藍色漸層
TTITLE7=賈志筠 - 熱戀傷痕
TTITLE8=劉淑娟 and 賈志筠 - 無傷
TTITLE9=盧昌明 - Ending
EXTD=YEAR: 1988
EXTT0=
EXTT1=
EXTT2=
EXTT3=
EXTT4=
EXTT5=
EXTT6=
EXTT7=
EXTT8=
EXTT9=
PLAYORDER=
